<mxfile host="app.diagrams.net" modified="2021-02-17T16:15:08.276Z" agent="5.0 (Macintosh; Intel Mac OS X 10_14_5) AppleWebKit/537.36 (KHTML, like Gecko) Chrome/88.0.4324.150 Safari/537.36" etag="9uPajWbfRys8CkN3yCeV" version="14.4.0" type="github">
  <diagram id="OUScpcgaoWoynX95eS6l" name="Page-1">
    <mxGraphModel dx="762" dy="1082" grid="1" gridSize="10" guides="1" tooltips="1" connect="1" arrows="1" fold="1" page="1" pageScale="1" pageWidth="850" pageHeight="1100" math="0" shadow="0">
      <root>
        <mxCell id="0" />
        <mxCell id="1" parent="0" />
        <mxCell id="1lyKlo4-qBYRxARKKWhJ-1" value="&lt;pre&gt;printf prototipo: &lt;span style=&quot;background-color: rgb(255 , 255 , 255)&quot;&gt;int ft_printf(char *str, ...);&lt;/span&gt;&lt;/pre&gt;" style="rounded=0;whiteSpace=wrap;html=1;fillColor=#fad9d5;strokeColor=#ae4132;" vertex="1" parent="1">
          <mxGeometry x="220" y="70" width="370" height="60" as="geometry" />
        </mxCell>
        <mxCell id="1lyKlo4-qBYRxARKKWhJ-3" value="orden de formateadores:&lt;br&gt;&lt;span style=&quot;font-family: monospace ; background-color: rgb(255 , 255 , 255)&quot;&gt;%[&lt;/span&gt;&lt;span style=&quot;font-family: monospace ; background-color: rgb(213 , 232 , 212)&quot;&gt;flags&lt;/span&gt;&lt;span style=&quot;font-family: monospace ; background-color: rgb(255 , 255 , 255)&quot;&gt;][&lt;/span&gt;&lt;span style=&quot;font-family: monospace ; background-color: rgb(255 , 230 , 204)&quot;&gt;width&lt;/span&gt;&lt;span style=&quot;font-family: monospace ; background-color: rgb(255 , 255 , 255)&quot;&gt;][&lt;/span&gt;&lt;span style=&quot;font-family: monospace ; background-color: rgb(204 , 229 , 255)&quot;&gt;.precision&lt;/span&gt;&lt;span style=&quot;font-family: monospace ; background-color: rgb(255 , 255 , 255)&quot;&gt;][length]&lt;/span&gt;&lt;span style=&quot;font-family: monospace ; background-color: rgb(204 , 204 , 255)&quot;&gt;specifier&lt;/span&gt;" style="rounded=0;whiteSpace=wrap;html=1;fillColor=#fad9d5;strokeColor=#ae4132;" vertex="1" parent="1">
          <mxGeometry x="220" y="170" width="370" height="60" as="geometry" />
        </mxCell>
        <mxCell id="1lyKlo4-qBYRxARKKWhJ-4" value="&lt;h1&gt;&lt;b&gt;flags&lt;/b&gt;:&lt;/h1&gt;&lt;div&gt;&lt;h2&gt;&lt;/h2&gt;&lt;h3&gt;&lt;/h3&gt;&lt;h4&gt;&lt;p&gt;&lt;/p&gt;&lt;ul&gt;&lt;li&gt;[-]&amp;nbsp; &lt;span style=&quot;font-weight: normal&quot;&gt;Alinea a la izquierda (números y strings) y rellena espacios sobrantes (porque el width sea mayor que la longitud de lo que alinee) con &quot; &quot;. No funciona con el flag 0.&lt;/span&gt;&lt;/li&gt;&lt;/ul&gt;&lt;p&gt;&lt;/p&gt;&lt;p&gt;&lt;/p&gt;&lt;ul&gt;&lt;li&gt;[0] &lt;span style=&quot;font-weight: normal&quot;&gt;Rellena de 0 los espacios sobrantes (marcados por width) en un string SOLO si está alineado a la derecha (no funciona junto a [-])&lt;/span&gt;&lt;/li&gt;&lt;/ul&gt;&lt;p&gt;&lt;/p&gt;&lt;/h4&gt;&lt;/div&gt;" style="rounded=0;whiteSpace=wrap;html=1;fillColor=#d5e8d4;strokeColor=#82b366;align=left;verticalAlign=top;spacingBottom=2;spacingLeft=2;spacingRight=5;" vertex="1" parent="1">
          <mxGeometry x="220" y="270" width="370" height="190" as="geometry" />
        </mxCell>
        <mxCell id="1lyKlo4-qBYRxARKKWhJ-5" value="&lt;h1&gt;&lt;b&gt;width&lt;/b&gt;:&lt;/h1&gt;&lt;div&gt;Número &lt;b&gt;mínimo&lt;/b&gt; de caracteres a imprimir. Lo que sobra se rellena por defecto con espacios en blanco.Si la longitud del especificador que quiero imprimir es mayor que el width, no se recortará (es como si width no existiera). Ejemplo: si quiero imprimir &quot;uno&quot; con un width de 6 el resultado será &quot;&amp;nbsp; &amp;nbsp;uno&quot; (con tres espacios y alineado a la derecha por defecto). Width (anchura) se puede especificar de dos maneras:&lt;/div&gt;&lt;div&gt;&lt;h2&gt;&lt;/h2&gt;&lt;h3&gt;&lt;/h3&gt;&lt;h4&gt;&lt;p&gt;&lt;/p&gt;&lt;ul&gt;&lt;li&gt;[1-9]&amp;nbsp; &lt;span style=&quot;font-weight: normal&quot;&gt;Con un número del 1 al 9 después de los flags&lt;/span&gt;&lt;/li&gt;&lt;/ul&gt;&lt;p&gt;&lt;/p&gt;&lt;p&gt;&lt;/p&gt;&lt;p&gt;&lt;ul&gt;&lt;li&gt;[*] &lt;span style=&quot;font-weight: normal&quot;&gt;Con un asterisco después de los flags que implica que el width se especificará en un argumento inmediatamente anterior al especificador que estamos imprimiendo. Ejemplo:&amp;nbsp;&lt;/span&gt;&lt;span style=&quot;background-color: rgb(255 , 255 , 255)&quot;&gt;printf&lt;/span&gt;&lt;span style=&quot;background-color: rgb(255 , 255 , 255) ; font-weight: normal&quot;&gt;(&lt;/span&gt;&lt;span style=&quot;background-color: rgb(255 , 255 , 255) ; font-weight: normal&quot;&gt;&quot;&lt;/span&gt;&lt;span style=&quot;background-color: rgb(255 , 255 , 255) ; font-weight: normal&quot;&gt;\&quot;&lt;/span&gt;&lt;span style=&quot;background-color: rgb(255 , 255 , 255) ; font-weight: normal&quot;&gt;%*s&lt;/span&gt;&lt;span style=&quot;background-color: rgb(255 , 255 , 255) ; font-weight: normal&quot;&gt;\&quot;&lt;/span&gt;&lt;span style=&quot;background-color: rgb(255 , 255 , 255) ; font-weight: normal&quot;&gt;&quot;&lt;/span&gt;&lt;span style=&quot;background-color: rgb(255 , 255 , 255) ; font-weight: normal&quot;&gt;, 3&lt;/span&gt;&lt;span style=&quot;background-color: rgb(255 , 255 , 255) ; font-weight: normal&quot;&gt;0&lt;/span&gt;&lt;span style=&quot;background-color: rgb(255 , 255 , 255) ; font-weight: normal&quot;&gt;,&lt;/span&gt;&lt;span style=&quot;font-weight: normal ; background-color: rgb(255 , 255 , 255)&quot;&gt;&amp;nbsp;mystring);&amp;nbsp;&lt;/span&gt;&lt;span style=&quot;font-weight: 400 ; background-color: rgb(255 , 255 , 255)&quot;&gt;&lt;br&gt;&lt;/span&gt;&lt;span style=&quot;font-weight: normal&quot;&gt;donde mystring = &quot;ñaña&quot; imprimirá:&lt;/span&gt;&lt;br&gt;&lt;span style=&quot;font-weight: 400&quot;&gt;&quot;&amp;nbsp; &amp;nbsp; &amp;nbsp; &amp;nbsp; &amp;nbsp; &amp;nbsp; &amp;nbsp; &amp;nbsp; &amp;nbsp; &amp;nbsp; &amp;nbsp; &amp;nbsp; ñaña&quot; ---&amp;gt; longitud total 30&lt;/span&gt;&lt;br&gt;&lt;span style=&quot;font-weight: 400&quot;&gt;&amp;nbsp;&lt;/span&gt;&lt;span style=&quot;font-weight: 700 ; background-color: rgb(255 , 255 , 255)&quot;&gt;printf&lt;/span&gt;&lt;span style=&quot;font-weight: 400 ; background-color: rgb(255 , 255 , 255)&quot;&gt;(&lt;/span&gt;&lt;span style=&quot;font-weight: 400 ; background-color: rgb(255 , 255 , 255)&quot;&gt;&quot;&lt;/span&gt;&lt;span style=&quot;font-weight: 400 ; background-color: rgb(255 , 255 , 255)&quot;&gt;\&quot;&lt;/span&gt;&lt;span style=&quot;font-weight: 400 ; background-color: rgb(255 , 255 , 255)&quot;&gt;%*s&lt;/span&gt;&lt;span style=&quot;font-weight: 400 ; background-color: rgb(255 , 255 , 255)&quot;&gt;\&quot;&lt;/span&gt;&lt;span style=&quot;font-weight: 400 ; background-color: rgb(255 , 255 , 255)&quot;&gt;&quot;&lt;/span&gt;&lt;span style=&quot;font-weight: 400 ; background-color: rgb(255 , 255 , 255)&quot;&gt;, 3&lt;/span&gt;&lt;span style=&quot;font-weight: 400 ; background-color: rgb(255 , 255 , 255)&quot;&gt;,&lt;/span&gt;&lt;span style=&quot;font-weight: 400 ; background-color: rgb(255 , 255 , 255)&quot;&gt;&amp;nbsp;mystring);&lt;br&gt;&lt;/span&gt;&lt;span style=&quot;font-weight: 400&quot;&gt;&quot;ñaña&quot; --&amp;gt; longitud total = longitud de mystring&lt;/span&gt;&lt;br&gt;&lt;/li&gt;&lt;/ul&gt;&lt;/p&gt;&lt;p&gt;&lt;/p&gt;&lt;/h4&gt;&lt;/div&gt;" style="rounded=0;whiteSpace=wrap;html=1;fillColor=#ffe6cc;strokeColor=#d79b00;align=left;verticalAlign=top;spacingBottom=2;spacingLeft=2;spacingRight=5;" vertex="1" parent="1">
          <mxGeometry x="220" y="490" width="370" height="360" as="geometry" />
        </mxCell>
        <mxCell id="1lyKlo4-qBYRxARKKWhJ-6" value="&lt;h1&gt;&lt;b&gt;precision&lt;/b&gt;:&lt;/h1&gt;&lt;div&gt;Número &lt;b&gt;mínimo&lt;/b&gt; de caracteres a imprimir. Lo que sobra se rellena por defecto con espacios en blanco.Si la longitud del especificador que quiero imprimir es mayor que el width, no se recortará (es como si width no existiera). Ejemplo: si quiero imprimir &quot;uno&quot; con un width de 6 el resultado será &quot;&amp;nbsp; &amp;nbsp;uno&quot; (con tres espacios y alineado a la derecha por defecto). Width (anchura) se puede especificar de dos maneras:&lt;/div&gt;&lt;div&gt;&lt;h2&gt;&lt;/h2&gt;&lt;h3&gt;&lt;/h3&gt;&lt;h4&gt;&lt;p&gt;&lt;/p&gt;&lt;ul&gt;&lt;li&gt;[1-9]&amp;nbsp; &lt;span style=&quot;font-weight: normal&quot;&gt;Con un número del 1 al 9 después de los flags&lt;/span&gt;&lt;/li&gt;&lt;/ul&gt;&lt;p&gt;&lt;/p&gt;&lt;p&gt;&lt;/p&gt;&lt;p&gt;&lt;/p&gt;&lt;ul&gt;&lt;li&gt;[*] &lt;span style=&quot;font-weight: normal&quot;&gt;Con un asterisco después de los flags que implica que el width se especificará en un argumento inmediatamente anterior al especificador que estamos imprimiendo. Ejemplo:&amp;nbsp;&lt;/span&gt;&lt;span style=&quot;background-color: rgb(255 , 255 , 255)&quot;&gt;printf&lt;/span&gt;&lt;span style=&quot;background-color: rgb(255 , 255 , 255) ; font-weight: normal&quot;&gt;(&lt;/span&gt;&lt;span style=&quot;background-color: rgb(255 , 255 , 255) ; font-weight: normal&quot;&gt;&quot;&lt;/span&gt;&lt;span style=&quot;background-color: rgb(255 , 255 , 255) ; font-weight: normal&quot;&gt;\&quot;&lt;/span&gt;&lt;span style=&quot;background-color: rgb(255 , 255 , 255) ; font-weight: normal&quot;&gt;%*s&lt;/span&gt;&lt;span style=&quot;background-color: rgb(255 , 255 , 255) ; font-weight: normal&quot;&gt;\&quot;&lt;/span&gt;&lt;span style=&quot;background-color: rgb(255 , 255 , 255) ; font-weight: normal&quot;&gt;&quot;&lt;/span&gt;&lt;span style=&quot;background-color: rgb(255 , 255 , 255) ; font-weight: normal&quot;&gt;, 3&lt;/span&gt;&lt;span style=&quot;background-color: rgb(255 , 255 , 255) ; font-weight: normal&quot;&gt;0&lt;/span&gt;&lt;span style=&quot;background-color: rgb(255 , 255 , 255) ; font-weight: normal&quot;&gt;,&lt;/span&gt;&lt;span style=&quot;font-weight: normal ; background-color: rgb(255 , 255 , 255)&quot;&gt;&amp;nbsp;mystring);&amp;nbsp;&lt;/span&gt;&lt;span style=&quot;font-weight: 400 ; background-color: rgb(255 , 255 , 255)&quot;&gt;&lt;br&gt;&lt;/span&gt;&lt;span style=&quot;font-weight: normal&quot;&gt;donde mystring = &quot;ñaña&quot; imprimirá:&lt;/span&gt;&lt;br&gt;&lt;span style=&quot;font-weight: 400&quot;&gt;&quot;&amp;nbsp; &amp;nbsp; &amp;nbsp; &amp;nbsp; &amp;nbsp; &amp;nbsp; &amp;nbsp; &amp;nbsp; &amp;nbsp; &amp;nbsp; &amp;nbsp; &amp;nbsp; ñaña&quot; ---&amp;gt; longitud total 30&lt;/span&gt;&lt;br&gt;&lt;span style=&quot;font-weight: 400&quot;&gt;&amp;nbsp;&lt;/span&gt;&lt;span style=&quot;font-weight: 700 ; background-color: rgb(255 , 255 , 255)&quot;&gt;printf&lt;/span&gt;&lt;span style=&quot;font-weight: 400 ; background-color: rgb(255 , 255 , 255)&quot;&gt;(&lt;/span&gt;&lt;span style=&quot;font-weight: 400 ; background-color: rgb(255 , 255 , 255)&quot;&gt;&quot;&lt;/span&gt;&lt;span style=&quot;font-weight: 400 ; background-color: rgb(255 , 255 , 255)&quot;&gt;\&quot;&lt;/span&gt;&lt;span style=&quot;font-weight: 400 ; background-color: rgb(255 , 255 , 255)&quot;&gt;%*s&lt;/span&gt;&lt;span style=&quot;font-weight: 400 ; background-color: rgb(255 , 255 , 255)&quot;&gt;\&quot;&lt;/span&gt;&lt;span style=&quot;font-weight: 400 ; background-color: rgb(255 , 255 , 255)&quot;&gt;&quot;&lt;/span&gt;&lt;span style=&quot;font-weight: 400 ; background-color: rgb(255 , 255 , 255)&quot;&gt;, 3&lt;/span&gt;&lt;span style=&quot;font-weight: 400 ; background-color: rgb(255 , 255 , 255)&quot;&gt;,&lt;/span&gt;&lt;span style=&quot;font-weight: 400 ; background-color: rgb(255 , 255 , 255)&quot;&gt;&amp;nbsp;mystring);&lt;br&gt;&lt;/span&gt;&lt;span style=&quot;font-weight: 400&quot;&gt;&quot;ñaña&quot; --&amp;gt; longitud total = longitud de mystring&lt;/span&gt;&lt;br&gt;&lt;/li&gt;&lt;/ul&gt;&lt;p&gt;&lt;/p&gt;&lt;p&gt;&lt;/p&gt;&lt;/h4&gt;&lt;/div&gt;" style="rounded=0;whiteSpace=wrap;html=1;fillColor=#b1ddf0;strokeColor=#10739e;align=left;verticalAlign=top;spacingBottom=2;spacingLeft=2;spacingRight=5;" vertex="1" parent="1">
          <mxGeometry x="220" y="870" width="370" height="360" as="geometry" />
        </mxCell>
      </root>
    </mxGraphModel>
  </diagram>
</mxfile>
